HIERARCHY
ROOT Hips
{
  OFFSET -31.5692 30.0904 122.763
  CHANNELS 6 Xposition Yposition Zposition Zrotation Xrotation Yrotation
  JOINT LeftUpLeg
  {
    OFFSET 8.64259 1.95398 -2.38835
    CHANNELS 3 Zrotation Xrotation Yrotation
    JOINT LeftLeg
    {
      OFFSET 43.7702 0 0
      CHANNELS 3 Zrotation Xrotation Yrotation
      JOINT LeftFoot
      {
        OFFSET 40.6238 0 0
        CHANNELS 3 Zrotation Xrotation Yrotation
        JOINT LeftToeBase
        {
          OFFSET 12.7242 0 0
          CHANNELS 3 Zrotation Xrotation Yrotation
          End Site
          {
            OFFSET 0 0 0
          }
        }
      }
    }
  }
  JOINT RightUpLeg
  {
    OFFSET -8.2249 1.95398 -2.59336
    CHANNELS 3 Zrotation Xrotation Yrotation
    JOINT RightLeg
    {
      OFFSET 43.5653 0 0
      CHANNELS 3 Zrotation Xrotation Yrotation
      JOINT RightFoot
      {
        OFFSET 40.6238 0 0
        CHANNELS 3 Zrotation Xrotation Yrotation
        JOINT RightToeBase
        {
          OFFSET 12.7242 0 0
          CHANNELS 3 Zrotation Xrotation Yrotation
          End Site
          {
            OFFSET 0 0 0
          }
        }
      }
    }
  }
  JOINT Spine
  {
    OFFSET 0.165834 0.87714 6.61349
    CHANNELS 3 Zrotation Xrotation Yrotation
    JOINT Spine1
    {
      OFFSET 7.38963 1.71661e-005 0
      CHANNELS 3 Zrotation Xrotation Yrotation
      JOINT Spine2
      {
        OFFSET 11.9445 1.14441e-005 0
        CHANNELS 3 Zrotation Xrotation Yrotation
        JOINT Spine3
        {
          OFFSET 14.7254 4.19617e-005 0
          CHANNELS 3 Zrotation Xrotation Yrotation
          JOINT Spine4
          {
            OFFSET 10.9679 0 0
            CHANNELS 3 Zrotation Xrotation Yrotation
            JOINT RightShoulder
            {
              OFFSET 2.46616 -1.6653 3.69651
              CHANNELS 3 Zrotation Xrotation Yrotation
              JOINT RightArm
              {
                OFFSET 13.0012 0 0
                CHANNELS 3 Zrotation Xrotation Yrotation
                JOINT RightForeArm
                {
                  OFFSET 28.7848 1.62311e-005 0
                  CHANNELS 3 Zrotation Xrotation Yrotation
                  JOINT RightHand
                  {
                    OFFSET 26.5688 1.62095e-005 0
                    CHANNELS 3 Zrotation Xrotation Yrotation
                    End Site
                    {
                      OFFSET 0 0 0
                    }
                  }
                }
              }
            }
            JOINT LeftShoulder
            {
              OFFSET 2.38034 -1.29275 -3.7523
              CHANNELS 3 Zrotation Xrotation Yrotation
              JOINT LeftArm
              {
                OFFSET 16.3182 6.07031e-005 0
                CHANNELS 3 Zrotation Xrotation Yrotation
                JOINT LeftForeArm
                {
                  OFFSET 27.0901 0 0
                  CHANNELS 3 Zrotation Xrotation Yrotation
                  JOINT LeftHand
                  {
                    OFFSET 24.5451 1.51738e-005 0
                    CHANNELS 3 Zrotation Xrotation Yrotation
                    End Site
                    {
                      OFFSET 0 0 0
                    }
                  }
                }
              }
            }
            JOINT Neck
            {
              OFFSET 5.0226 -0.0266342 0
              CHANNELS 3 Zrotation Xrotation Yrotation
              JOINT Head
              {
                OFFSET 6.69364 2.86102e-005 0
                CHANNELS 3 Zrotation Xrotation Yrotation
                End Site
                {
                  OFFSET 0 0 0
                }
              }
            }
          }
        }
      }
    }
  }
}
MOTION
Frames:	12
Frame Time:	0.0416667
-324.554 100.644 -300.332 101.516 -49.1415 97.9943 -172.991 -7.63291 89.7661 -6.57827 2.6327 0.398782 65.0126 3.94093 -0.732492 14.9976 -2.19555 -9.59471 172.175 -3.00799 88.5105 -13.334 -20.0678 -1.57134 61.5608 -0.561809 -6.15848 27.1493 -0.990792 8.19949 -0.035901 8.00315 -90.0642 10.845 -0.10111 -0.118362 -0.825981 -0.106218 -0.113797 -23.3611 -0.0608882 -0.143273 -3.34846 -0.0608696 -0.143278 89.6004 -31.5158 -106.966 36.7952 -8.9432 -6.84887 2.34595 -45.5112 -18.8814 -15.8545 -0.364939 -16.1302 -89.8983 -54.8621 79.8688 -18.715 14.3539 -14.1084 -6.81384 7.07476 -1.02405 0.0139785 -0.24592 -23.5951 6.78801 -8.56399 -0.138374 -3.7021 -8.37167 -4.22901 
-324.616 100.619 -300.242 101.445 -49.6628 98.2469 -172.742 -7.54974 90.1035 -6.5461 2.29188 0.287942 65.0369 3.94913 -0.567428 3.92003 -0.861795 -19.6129 172.815 -2.97972 89.1056 -13.3334 -19.6844 -1.95584 61.5208 -0.563071 -5.79054 26.9463 -0.915999 8.21199 0.031681 8.00254 -90.118 10.8632 0.00861174 -0.235497 -0.80781 -0.00176411 -0.235648 -23.3428 0.0789837 -0.22202 -3.33017 0.0789693 -0.222026 89.6597 -31.2006 -106.97 36.9803 -8.81177 -7.07041 2.08938 -48.9373 -18.6617 -9.33244 -0.868556 -19.2935 -89.8649 -55.3303 80.0062 -18.4573 14.2344 -14.226 -6.71567 6.507 -1.35872 -0.247579 -0.281924 -25.4821 7.00886 -8.37542 0.377232 -3.68311 -8.28634 -4.93808 
-324.626 100.595 -300.197 101.558 -49.5388 98.3654 -172.698 -7.38151 90.1844 -7.10174 2.39211 0.320686 65.3403 3.99655 -0.588954 21.2851 -2.46016 -2.8456 172.759 -3.22688 89.1114 -13.0851 -19.2363 -1.88539 61.8537 -0.872385 -5.42751 26.5882 -0.771344 8.17533 0.0201735 8.00313 -90.1619 10.8682 -0.0345707 -0.31865 -0.802772 -0.0485748 -0.316831 -23.3376 0.0627863 -0.314312 -3.32497 0.0627786 -0.314324 89.4728 -30.8454 -107.47 36.9394 -8.84126 -7.35218 2.08705 -56.9829 -18.127 3.35835 -2.99032 -27.7742 -89.8906 -56.1502 80.1269 -17.951 13.5048 -14.3409 -6.50037 9.60971 -0.932625 -2.4801 0.313288 -23.0994 6.89996 -8.21272 1.0897 -3.31747 -8.28343 -5.36457 
-324.63 100.533 -300.171 101.63 -49.4806 98.3877 -172.732 -7.239 90.1789 -7.50572 2.3697 0.362289 65.48 3.90401 -0.855662 23.5663 -3.64784 2.86308 172.837 -3.65003 89.1075 -12.6617 -18.4028 -1.94743 62.4385 -1.33147 -4.72153 25.9479 -0.506935 8.08805 0.0218615 8.00425 -90.186 10.8652 -0.0423546 -0.365938 -0.805837 -0.0584283 -0.363717 -23.3406 0.0695672 -0.361745 -3.32794 0.0695762 -0.361747 89.4164 -30.5589 -107.692 37.1491 -8.88573 -7.18334 0.235491 -63.204 -19.8468 12.4677 -5.77505 -35.2185 -89.9716 -56.4251 80.0657 -17.8167 13.4573 -14.3815 -6.66748 10.2437 -0.734343 -2.21363 0.289802 -22.6142 6.74969 -8.3227 1.11229 -2.92661 -8.40952 -4.68254 
-324.719 100.457 -300.189 101.231 -49.2902 98.1172 -172.71 -6.48936 90.2464 -8.52169 2.68469 0.334331 66.1423 4.1096 -0.494078 22.7986 -3.71417 2.08566 172.969 -3.7531 89.2252 -12.0635 -17.0994 -1.91009 63.0135 -1.85727 -3.7849 25.5836 -0.379298 8.14354 -0.0106165 7.97745 -90.233 10.9185 -0.128938 -0.451287 -0.752509 -0.148653 -0.445183 -23.287 0.0126578 -0.469172 -3.27438 0.0126609 -0.469172 89.4664 -30.043 -107.798 37.2524 -9.24897 -7.28545 1.49386 -62.1407 -18.829 12.2184 -5.613 -34.7385 -89.9585 -57.1115 80.2133 -17.3802 13.5432 -14.3538 -6.57998 9.92393 -0.884182 -2.32069 0.301041 -22.155 7.0965 -8.13165 2.23517 -3.54361 -8.42263 -5.48512 
-324.75 100.357 -300.148 101.239 -49.1601 97.8873 -172.623 -6.04531 90.186 -9.44467 2.85645 0.150819 66.5129 4.14891 -0.66528 22.9549 -3.80265 2.50242 172.57 -3.81447 88.811 -12.047 -16.0159 -1.62657 64.1753 -2.74679 -2.59551 24.3051 0.0910862 8.23693 -0.0176637 7.9856 -90.1941 10.9022 -0.124976 -0.37433 -0.768738 -0.141337 -0.368462 -23.3035 -0.00668655 -0.394582 -3.29082 -0.00670383 -0.394586 89.3246 -30.2012 -108.014 37.1581 -9.30192 -7.11652 4.38733 -49.4249 -16.3699 -6.43308 -1.33485 -21.4783 -89.8824 -56.8439 80.2687 -17.6214 13.4846 -14.3224 -6.51115 10.4945 -0.666039 -2.25571 0.3167 -21.5493 6.85305 -8.15149 1.73245 -3.38182 -8.34733 -5.08491 
-324.904 100.23 -300.037 101.14 -49.1383 97.8977 -172.488 -5.37107 90.4554 -10.651 3.0854 0.111307 66.9901 4.12953 -0.737471 23.4044 -3.62116 2.63043 172.675 -4.11112 88.9512 -11.4867 -14.4126 -1.53774 65.0674 -3.47711 -1.09964 23.7995 0.303694 8.16689 -0.00607645 8.00566 -90.2001 10.8622 -0.104547 -0.388216 -0.808811 -0.121531 -0.383246 -23.3435 0.0169568 -0.401687 -3.33085 0.0169611 -0.401691 89.3737 -30.0329 -107.984 37.2728 -9.00061 -7.2817 5.37465 -36.958 -15.748 -22.4644 0.0714835 -12.2956 -89.8017 -56.2955 80.2786 -18.1073 13.2919 -14.3863 -6.54511 11.0295 -0.637946 -4.82272 0.815296 -23.7755 6.98499 -8.07142 1.7225 -3.31403 -8.27196 -5.25067 
-325.086 100.146 -299.862 101.212 -49.1445 98.2054 -172.363 -4.90528 90.7994 -11.7018 3.20075 0.240723 67.7468 4.319 -0.46439 22.8605 -3.80008 2.36595 172.81 -4.86268 89.2466 -10.2831 -12.3671 -1.34511 65.8468 -4.17929 0.786025 22.5881 0.684054 8.51256 0.0207693 8.02721 -90.2371 10.8191 -0.0680325 -0.465132 -0.851964 -0.0884445 -0.461705 -23.3865 0.0749046 -0.46408 -3.37381 0.0748887 -0.464089 89.298 -30.1188 -108.099 37.027 -8.56652 -7.1746 4.84387 -36.2469 -16.101 -15.1884 -0.410207 -12.3011 -89.9273 -56.6258 80.1656 -17.6759 13.5591 -14.5612 -6.31024 9.8682 -0.927711 0.73715 -0.0405828 -19.5539 8.00472 -7.77199 2.61772 -5.09308 -8.0664 -6.95739 
-325.216 99.9931 -299.64 100.896 -49.0947 97.6387 -172.578 -4.46337 90.5536 -12.3006 2.9956 0.331402 67.943 4.18592 -0.634994 21.3156 -3.11784 -1.15889 172.894 -5.57242 89.106 -8.92206 -10.4594 -1.49282 67.0707 -5.03673 2.82792 21.2223 1.31421 8.13581 0.0180567 7.9922 -90.2007 10.8892 -0.0568059 -0.393868 -0.781789 -0.0740767 -0.390995 -23.3165 0.0641939 -0.392731 -3.30382 0.0641964 -0.392736 89.3495 -30.0488 -108.026 37.1343 -8.56285 -6.87034 4.743 -35.9825 -16.3201 -15.1316 -0.430087 -11.9753 -90.1215 -56.8571 79.9395 -17.2914 13.8091 -14.3271 -7.29601 9.42176 -1.65569 -0.499928 -0.00777089 -20.8314 8.03802 -7.73885 2.85845 -5.82823 -8.03818 -7.31803 
-325.136 99.8946 -299.267 101.298 -48.827 97.9287 -172.547 -4.7646 90.7041 -12.7427 3.26325 0.488174 68.2514 4.18785 -0.770934 23.851 -3.42935 2.71513 172.81 -6.71017 89.0629 -7.90386 -8.07148 -1.41284 68.4867 -5.77556 5.22988 19.8049 1.82819 8.28737 0.0103746 8.02112 -90.2084 10.8313 -0.0755503 -0.407357 -0.83969 -0.0934011 -0.403645 -23.3743 0.0503579 -0.411233 -3.36169 0.0503711 -0.411236 89.4403 -29.8199 -107.938 37.3445 -8.58388 -6.89127 5.08711 -35.6994 -15.8746 -15.389 -0.339273 -12.7238 -90.0663 -57.0028 80.0437 -17.2252 13.8555 -14.2711 -7.08875 9.70965 -1.49584 -0.18694 -0.0333776 -20.3993 7.7737 -7.5638 3.23207 -5.4997 -7.95562 -7.53371 
-325.384 99.7695 -298.849 101.448 -48.9176 97.9752 -172.224 -4.62745 91.1095 -13.4311 3.40808 0.297244 68.6639 4.2043 -0.94171 23.8863 -3.34154 2.55354 172.93 -6.99481 89.1697 -8.01055 -5.54413 -1.36791 70.5222 -6.60244 7.97895 18.0003 2.55544 8.23438 0.0514682 8.03145 -90.2061 10.8108 0.00742716 -0.410478 -0.86018 -0.0106722 -0.410406 -23.3949 0.130441 -0.389269 -3.38221 0.130426 -0.38928 89.5108 -29.9941 -107.729 37.275 -8.50211 -6.82134 4.89104 -36.4901 -15.9811 -15.2834 -0.351679 -12.9582 -90.1543 -57.1093 79.9421 -17.3104 13.6171 -14.4686 -6.98311 9.94846 -1.46546 0.6228 -0.148138 -20.1959 7.67091 -7.63831 3.27768 -5.38967 -8.04734 -7.26128 
-325.472 99.6107 -298.451 101.419 -48.621 97.9896 -172.12 -4.16549 91.3993 -14.5236 3.78046 0.385838 69.2367 4.29652 -0.915729 24.1095 -3.22323 2.52635 173.114 -7.55647 89.3601 -7.85186 -2.37685 -1.26922 72.7311 -7.50474 10.7112 16.8163 3.00105 8.313 0.0120017 8.04963 -90.2052 10.7743 -0.0706483 -0.401411 -0.896685 -0.0882575 -0.397918 -23.4313 0.0532535 -0.404082 -3.4187 0.0532485 -0.404096 89.3897 -30.0137 -107.961 37.2903 -8.4418 -6.95545 4.70395 -35.988 -16.1603 -15.1227 -0.314094 -13.2628 -89.9101 -57.0004 80.2597 -17.2126 13.622 -14.5151 -6.27734 9.7756 -1.14597 -0.341747 -0.0111882 -20.8612 8.12661 -7.35256 3.59822 -5.64022 -7.82408 -7.471 
